<svg width="48" height="48" viewBox="0 0 48 48" fill="none" xmlns="http://www.w3.org/2000/svg">
<path d="M24.1808 3.90234C24.1808 3.90234 22.2235 1.19661 19.0572 1.82986C16.7544 2.06014 14.7395 3.0388 13.6457 4.24774C12.5519 5.45669 12.3216 6.43536 12.3216 6.43536C12.3216 6.43536 12.0338 7.24132 11.2278 7.24132C10.8249 7.35646 11.1127 5.68697 9.73106 6.20508C8.40698 6.7232 9.73106 7.98971 9.73106 7.98971C9.73106 7.98971 10.5946 8.79567 11.8035 7.98971C13.07 7.18375 14.5093 5.97481 15.6606 5.51426C17.1574 4.59316 21.5326 4.76587 22.1659 4.881C22.9718 4.99614 23.1446 4.93858 22.5689 4.65073C21.5902 4.13261 18.1937 3.44178 17.5028 3.55692C19.345 2.75096 21.4751 3.09637 23.9505 4.881C23.9505 4.881 26.426 3.78719 26.9441 3.67206C27.4622 3.55692 31.5496 2.75097 31.3193 3.7872C27.5198 3.55693 24.9292 4.99614 25.1595 5.16885C25.1595 5.16885 29.9952 4.24775 32.3555 5.51426C34.7159 6.78077 34.8886 7.58673 36.961 8.10485C39.0335 8.5654 38.9759 7.18375 38.8032 6.78077C38.3427 5.85967 36.6156 6.03237 37.364 7.29889C36.5581 7.47159 35.0613 5.28398 35.0613 5.28398C35.0613 5.28398 33.2191 2.40555 29.9952 1.71473C26.7714 1.0239 24.1808 3.90234 24.1808 3.90234Z" fill="white"/>
<path d="M23.6621 2.17535C22.1077 0.736131 18.8839 0.908835 17.8477 1.13911C18.7688 0.505854 20.208 -0.184966 21.4745 0.0453086C22.5683 0.102877 23.144 1.13911 23.6621 2.17535Z" fill="white"/>
<path d="M24.6982 2.17535C26.2526 0.736131 29.4764 0.908835 30.5127 1.13911C29.5916 0.505854 28.1524 -0.184966 26.8858 0.0453086C25.792 0.102877 25.2164 1.13911 24.6982 2.17535Z" fill="white"/>
<path d="M24.0073 6.20514C19.114 6.20514 15.5447 7.58679 13.645 10.7531C13.1269 12.0771 13.0693 13.5164 13.3571 15.0131C13.5874 15.8191 13.4723 16.4524 13.0117 17.0281C15.6599 15.4161 19.0564 16.2221 20.2078 16.5675C20.9562 17.0281 23.6619 16.1645 23.2014 13.1134L23.7195 15.0707C23.7195 16.2797 24.6982 16.0494 24.6982 15.1283L25.1011 13.2285C24.986 12.768 25.4466 17.6613 27.6342 16.7402C28.9582 16.1645 33.5062 15.4161 35.1181 17.0281C34.8302 16.9129 35.1181 15.0707 35.1181 15.0707C35.9816 13.2861 33.4486 5.62945 24.0073 6.20514Z" fill="white"/>
<path d="M8.92467 13.8618C5.35542 15.3586 8.11871 18.64 7.7733 19.3308C6.90977 18.9278 6.44922 19.5035 6.44922 20.0792C6.67949 21.0579 8.06114 21.0003 8.63683 20.0792C9.15495 19.1581 7.88844 16.7402 8.92467 15.6464C9.15495 14.7829 11.6304 15.0707 12.4939 12.5377C12.9545 11.1561 13.0696 9.77442 14.5088 8.04736C10.1336 9.14117 10.5366 13.2861 8.92467 13.8618Z" fill="white"/>
<path d="M11.63 15.5889C10.018 16.5675 9.49992 17.7189 9.7302 19.6762C9.84534 20.2519 9.49992 20.8852 8.92424 21.0579C8.34855 21.2306 7.94557 21.8063 7.71529 22.6698C7.36988 24.1666 8.52126 25.1453 8.57882 26.2391C7.48502 26.0664 7.31231 26.9299 7.71529 27.5056C9.32722 28.4267 10.018 26.1815 9.49992 25.2028C9.38479 24.3969 8.34855 22.7274 10.1332 21.9214C10.1332 21.9214 11.8027 21.4609 11.63 19.1005V15.5889Z" fill="white"/>
<path d="M15.6602 17.8916C16.4085 17.3735 17.2721 17.0281 18.2507 17.0281C19.2294 17.1432 20.0354 17.4886 20.6686 18.0643C20.0354 18.9278 19.2294 19.1005 18.3659 19.043C17.0418 19.043 16.2358 18.3522 15.6602 17.8916Z" fill="white"/>
<path d="M14.8545 19.3308C16.927 20.4246 19.1146 20.3095 21.4173 18.8127L20.6114 19.8489C21.6476 19.3884 22.5687 18.8127 22.9141 17.7189C23.0292 16.9705 23.4322 16.5675 24.1231 16.4524C25.735 16.4524 24.9866 18.9278 27.462 19.8489L26.8863 18.9278C29.1315 20.0216 31.3767 20.7125 33.5643 19.3884C33.1613 20.6549 31.204 20.8852 28.671 20.77C30.6283 22.1517 32.5856 22.2093 34.6005 19.8489C34.3127 24.3969 29.6496 25.2028 29.4194 25.4331C30.801 25.5482 32.1827 25.2604 33.6219 24.5696C32.7008 26.1239 30.9737 26.8723 28.2104 26.5845C29.9375 24.1666 28.2104 21.979 26.8288 21.8638L25.5047 19.043L25.735 23.6485C26.4258 22.9001 27.0591 22.6698 27.5196 23.4758C28.3256 25.0301 26.4834 27.2177 24.1231 27.2177C22.0506 27.2177 20.0932 25.2028 20.5538 23.5333C20.9568 22.8425 21.4749 22.6698 22.396 23.5909L22.4536 19.2157L21.4173 21.8063C18.5389 22.3244 19.2297 25.2604 19.9205 26.5845C17.5027 26.9875 15.6605 26.3542 14.4515 24.6271C16.0634 25.318 17.5602 25.6634 18.8267 25.2604C15.7756 24.3969 13.9334 22.6698 13.7031 19.8489C15.3726 21.576 17.3299 22.0941 19.6903 20.77C17.2724 21.2306 15.6029 20.8276 14.6818 19.3308H14.8545Z" fill="white"/>
<path d="M12.3209 20.4822C12.2634 22.3244 10.5939 22.9576 10.1333 23.9939C9.44249 25.2028 11.9755 28.6569 10.1333 30.1537C10.0182 29.2902 9.73033 28.8872 9.03951 29.1175C8.00327 29.4629 8.29111 31.0748 9.21221 31.0172C10.7666 31.0172 12.1482 29.8083 12.0331 27.045C11.6301 24.6271 12.8966 24.512 13.0693 23.303C13.242 21.6335 12.839 21.0003 12.3209 20.4822Z" fill="white"/>
<path d="M14.9122 26.1814C12.264 26.4117 13.7033 30.1536 12.8397 30.3839C12.667 31.1899 9.2129 31.0172 9.0402 34.241C8.75235 36.5438 10.4218 36.1408 10.4218 36.1408C11.5732 35.5651 11.4005 34.0683 9.84616 33.9532C9.9613 33.1472 10.8248 32.5715 12.0913 32.1685C13.7608 31.8807 14.2214 31.3626 14.1638 30.1536C14.0487 28.5417 14.1062 27.0449 14.9122 26.1814Z" fill="white"/>
<path d="M17.56 27.448C14.9118 27.6783 16.2359 31.3051 15.1997 32.1686C14.1634 32.9746 11.5728 32.8019 11.4001 36.0257C11.3426 38.2709 12.7818 37.9255 12.7818 37.9255C13.9331 37.6377 13.8756 35.6228 12.2061 35.7379C12.3212 34.9319 13.1847 34.3562 14.4513 33.9533C15.7178 33.6078 16.754 33.2049 16.754 31.9959C16.6389 30.384 16.8116 28.3115 17.56 27.448Z" fill="white"/>
<path d="M20.6113 27.2178C18.8267 27.6783 17.9056 28.657 17.5602 30.0386C17.5602 31.4779 18.3085 32.7444 17.3299 34.0109C16.1785 35.5077 11.9184 34.529 14.6817 41.3797C14.912 39.7677 14.4514 37.6953 16.4663 37.2347C16.4663 37.2347 20.0356 36.9469 20.6113 34.7593C20.8991 33.6655 19.9205 31.2476 21.9354 29.8659C23.2595 29.2902 23.8927 28.657 23.7776 27.9086L21.7627 27.7359C20.1507 28.0813 19.5175 29.4054 19.7478 31.6506C20.0932 34.2987 17.9056 34.9895 17.7329 34.6441C17.5602 34.2987 19.0569 34.529 18.9418 31.19C18.7691 29.2902 19.4024 28.0237 20.6113 27.2178Z" fill="white"/>
<path d="M21.5323 32.7444C21.4747 34.529 21.9928 36.6015 18.2509 38.0407C16.6965 38.674 16.4662 39.7102 16.9268 41.0343C17.1571 41.6675 17.6752 41.9554 18.5963 41.61C19.6325 40.2283 17.7328 39.9405 18.2509 39.5951C18.5963 39.2496 20.2658 39.4799 21.7626 37.7529C22.7412 36.4864 22.7412 34.7017 21.5323 32.7444Z" fill="white"/>
<path d="M23.0288 33.0322C24.1802 35.5077 23.0864 39.3648 21.6472 39.6526C19.9777 40.2859 18.8263 41.7251 19.6323 43.2795C19.9777 43.9703 20.4958 44.3157 21.3018 44.0278C22.2229 43.5097 21.9926 42.1856 20.8412 42.1281C20.7837 41.8402 21.1866 41.4373 22.338 40.8616C23.547 40.5162 23.7772 39.8829 24.1226 39.0194C24.9286 36.8318 24.3529 34.7017 23.0288 33.0322Z" fill="white"/>
<path d="M32.7585 17.8916C32.0101 17.3735 31.1466 17.0281 30.1679 17.0281C29.1892 17.1432 28.3833 17.4886 27.75 18.0643C28.3833 18.9278 29.1892 19.1005 30.0527 19.043C31.3768 19.043 32.1828 18.2946 32.7585 17.8916Z" fill="white"/>
<path d="M25.3897 33.0322C24.2384 35.5077 25.3322 39.3648 26.7714 39.6526C28.4409 40.2859 29.5922 41.7251 28.7863 43.2795C28.4409 43.9703 27.9228 44.3157 27.1168 44.0278C26.1957 43.5097 26.426 42.1856 27.5773 42.1281C27.6349 41.8402 27.2319 41.4373 26.0806 40.8616C24.8716 40.5162 24.6413 39.8829 24.2959 39.0194C23.49 36.8318 24.0657 34.7017 25.3897 33.0322Z" fill="white"/>
<path d="M26.7711 32.7444C26.8287 34.529 26.3105 36.6015 30.0525 38.0407C31.6069 38.674 31.8371 39.7102 31.3766 41.0343C31.1463 41.6675 30.6282 41.9554 29.7071 41.61C28.6709 40.2283 30.5706 39.9405 30.0525 39.5951C29.7071 39.2496 28.0376 39.4799 26.5408 37.7529C25.5046 36.4864 25.5621 34.7017 26.7711 32.7444Z" fill="white"/>
<path d="M27.6347 27.2178C29.4193 27.6783 30.3404 28.657 30.6858 30.0386C30.6858 31.4779 29.9374 32.7444 30.9161 34.0109C32.0675 35.5077 36.3275 34.529 33.5642 41.3797C33.334 39.7677 33.7945 37.6953 31.7796 37.2347C31.7796 37.2347 28.2104 36.9469 27.6347 34.7593C27.3468 33.6655 28.3255 31.2476 26.3106 29.8659C24.9865 29.2902 24.3533 28.657 24.4684 27.9086L26.4833 27.7359C28.0952 28.0813 28.7285 29.4054 28.4982 31.6506C28.1528 34.2987 30.3404 34.9895 30.5131 34.6441C30.6858 34.2987 29.189 34.529 29.3042 31.19C29.4769 29.2902 28.9012 28.0237 27.6347 27.2178Z" fill="white"/>
<path d="M30.6855 27.448C33.3337 27.6783 32.0096 31.3051 33.0459 32.1686C34.0821 32.9746 36.6727 32.8019 36.8454 36.0257C36.903 38.2709 35.4637 37.9255 35.4637 37.9255C34.3124 37.6377 34.3699 35.6228 36.0394 35.7379C35.9243 34.9319 35.0608 34.3562 33.7943 33.9533C32.5277 33.6078 31.4915 33.2049 31.4915 31.9959C31.6642 30.384 31.4915 28.3115 30.6855 27.448Z" fill="white"/>
<path d="M33.5068 26.1814C36.155 26.4117 34.7158 30.1536 35.5793 30.3839C35.752 31.1899 39.2061 31.0172 39.3788 34.241C39.6667 36.5438 37.9972 36.1408 37.9972 36.1408C36.8458 35.5651 37.0185 34.0683 38.5729 33.9532C38.4577 33.1472 37.5942 32.5715 36.3277 32.1685C34.6582 31.8807 34.1977 31.3626 34.2552 30.1536C34.3704 28.5417 34.3128 27.0449 33.5068 26.1814Z" fill="white"/>
<path d="M36.0399 20.4246C36.0975 22.2668 37.767 22.9 38.2275 23.9363C38.9184 25.1452 36.3853 28.5993 38.2275 30.0961C38.3427 29.2326 38.6305 28.8296 39.3214 29.0599C40.3576 29.4053 40.0697 31.0172 39.1486 30.9596C37.5943 30.9596 36.2126 29.7507 36.3278 26.9874C36.7308 24.5695 35.4643 24.4544 35.2915 23.2454C35.1188 21.6335 35.5218 20.9427 36.0399 20.4246Z" fill="white"/>
<path d="M36.7303 15.5889C38.3422 16.5675 38.8603 17.7189 38.6301 19.6762C38.5149 20.2519 38.8603 20.8852 39.436 21.0579C40.0117 21.2306 40.4147 21.8063 40.645 22.6698C40.9904 24.1666 39.839 25.1453 39.7814 26.2391C40.8753 26.0664 41.048 26.9299 40.645 27.5056C39.0331 28.4267 38.3422 26.1815 38.8603 25.2028C38.9755 24.3969 40.0117 22.7274 38.2271 21.9214C38.2271 21.9214 36.5576 21.4609 36.7303 19.1005V15.5889Z" fill="white"/>
<path d="M39.3205 13.8618C42.8897 15.3586 40.1265 18.64 40.4719 19.3308C41.3354 18.9278 41.7959 19.5035 41.7959 20.0792C41.5657 21.0579 40.184 21.0003 39.6083 20.0792C39.0902 19.1581 40.3567 16.7402 39.3205 15.6464C39.0902 14.7829 36.6148 15.0707 35.7512 12.5377C35.2907 11.1561 35.1755 9.77442 33.7363 8.04736C38.1115 9.14117 37.7086 13.2861 39.3205 13.8618Z" fill="white"/>
<path d="M21.9355 31.0173H26.3108C25.9654 31.5355 25.217 31.7657 24.1232 31.7657C23.0869 31.8233 22.3385 31.5355 21.9355 31.0173Z" fill="white"/>
<path d="M8.40656 7.35645C7.02491 8.73809 5.29785 10.9257 5.29785 10.9257L6.90978 12.1922C7.25519 11.6741 7.65817 11.156 8.11872 10.6954L7.77331 10.4076C7.42789 10.8106 7.14005 11.156 6.79464 11.559L5.93111 10.8681C5.93111 10.8681 7.65817 8.79566 8.6944 7.70185" fill="white"/>
<path d="M11.8036 7.75948C11.7461 7.81705 11.7461 7.81705 11.6885 7.81705C11.6309 7.87462 11.5158 7.93218 11.4582 7.98975C10.825 8.4503 10.2493 8.96842 9.67359 9.48654C9.61602 9.42897 8.98277 8.79572 8.9252 8.68058C9.27061 8.33517 9.61602 8.04732 9.96143 7.75948L9.61602 7.41406C9.15547 7.81704 8.69492 8.22003 8.23438 8.68058C8.34951 8.79572 9.50088 10.0622 9.61602 10.1774C10.1917 9.60167 10.825 9.08355 11.4582 8.56544C11.6309 8.4503 11.8036 8.27759 11.9763 8.16246" fill="white"/>
<path d="M5.01012 12.1347L5.98879 12.7104C5.75852 13.1134 5.47067 13.5164 5.2404 13.8618L5.64338 14.0921C5.93122 13.5739 6.27663 13.0558 6.62205 12.5953L4.83742 11.5015C4.83742 11.5015 4.08902 12.5953 3.22549 14.3223C2.36196 16.107 1.95898 17.3735 1.95898 17.3735L3.91632 18.0643C4.08903 17.4886 4.3193 16.8554 4.60714 16.2797L4.14659 16.107C3.91632 16.5675 3.74361 17.0281 3.5709 17.5462L2.53467 17.1432C2.53467 17.1432 2.93765 15.9343 3.62848 14.5526C4.3193 13.171 5.01012 12.1347 5.01012 12.1347Z" fill="white"/>
<path d="M6.90988 10.9835C7.25529 10.5805 7.6007 10.1775 7.94611 9.77452C8.00368 9.83209 8.63694 10.4078 8.75207 10.4653C8.63694 10.5805 8.5218 10.6956 8.46423 10.8108C8.06125 11.3289 7.6007 11.7894 7.25529 12.3651C7.25529 12.4227 7.19772 12.4227 7.19772 12.4802C7.14015 12.5378 7.08258 12.653 7.02501 12.7105C6.56446 13.3438 6.16148 13.977 5.81607 14.6679C5.7585 14.6103 4.95254 14.2073 4.89497 14.1497C5.12525 13.7468 5.35552 13.3438 5.5858 12.9408L5.18282 12.7105C4.8374 13.2286 4.54956 13.8043 4.26172 14.3224C4.37686 14.38 5.87364 15.2435 6.04635 15.3011C6.39176 14.6103 6.85231 13.8619 7.31286 13.1711C7.42799 12.9984 7.54313 12.7681 7.71584 12.5954C7.77341 12.5378 7.77341 12.4802 7.83097 12.4227C8.34909 11.6743 8.92478 11.041 9.55803 10.4078C9.4429 10.2926 8.17639 9.14126 8.06125 9.02612C7.6007 9.54424 7.14015 10.0048 6.73717 10.5805L6.90988 10.9835Z" fill="white"/>
<path d="M2.07408 18.6399L3.16788 18.9278C3.05275 19.3883 2.93761 19.8489 2.82247 20.2519L3.28302 20.367C3.39816 19.7913 3.57086 19.2156 3.74357 18.6399L1.72867 18.1218C1.72867 18.1218 1.32569 19.3883 1.03784 21.3457C0.75 23.303 0.75 24.6271 0.75 24.6271L2.82247 24.6847C2.82247 24.0514 2.88004 23.4181 2.93761 22.7849L2.47706 22.7273C2.41949 23.2454 2.41949 23.7636 2.36192 24.2241L1.21055 24.1665C1.21055 24.1665 1.21055 22.9 1.44082 21.3457C1.72867 19.8489 2.07408 18.6399 2.07408 18.6399Z" fill="white"/>
<path d="M3.51334 16.9704C3.68604 16.4523 3.91632 15.9917 4.14659 15.4736C4.20416 15.5312 5.01012 15.8766 5.12526 15.9341C5.06769 16.0493 5.01012 16.222 4.95255 16.3371C4.72228 16.9128 4.43444 17.5461 4.26173 18.1793C4.26173 18.2369 4.20416 18.2369 4.20416 18.2945C4.20416 18.4096 4.14659 18.4672 4.14659 18.5823C3.91632 19.3307 3.74361 20.0791 3.5709 20.8275C3.45577 20.8275 2.59224 20.6548 2.53467 20.5972C2.59224 20.1366 2.70738 19.6761 2.82251 19.2155L2.36196 19.1004C2.18926 19.7337 2.07412 20.3094 1.95898 20.9426C2.07412 20.9426 3.80118 21.288 3.91632 21.3456C4.03146 20.5396 4.20416 19.7337 4.43443 18.9853C4.492 18.755 4.54957 18.5247 4.60714 18.352C4.60714 18.2944 4.66471 18.2369 4.66471 18.1793C4.95255 17.3158 5.29797 16.5098 5.64338 15.7039C5.52824 15.6463 3.97389 14.9555 3.80118 14.8403C3.51334 15.4736 3.22549 16.1068 2.99522 16.7401L3.51334 16.9704Z" fill="white"/>
<path d="M1.26816 25.721L2.41954 25.6058C2.41954 26.0664 2.47711 26.5269 2.53468 26.9875L2.99522 26.9299C2.93766 26.3542 2.88009 25.721 2.88009 25.1453L0.807617 25.2604C0.807617 25.2604 0.807616 26.5845 1.15303 28.5418C1.49844 30.4992 1.90142 31.7081 1.90142 31.7657L3.91633 31.19C3.74362 30.6143 3.57091 29.981 3.39821 29.3478L2.93766 29.4629C3.05279 29.981 3.16793 30.4416 3.34064 30.9597L2.24683 31.2475C2.24683 31.2475 1.84385 30.0386 1.61358 28.5418C1.32574 26.9875 1.26816 25.721 1.26816 25.721Z" fill="white"/>
<path d="M2.1314 23.706C2.1314 23.1878 2.18897 22.6697 2.24654 22.094C2.3041 22.094 3.2252 22.2092 3.28277 22.2092C3.28277 22.3819 3.2252 22.497 3.2252 22.6697C3.16763 23.303 3.11007 23.9938 3.11007 24.6271C3.11007 24.6846 3.11007 24.7422 3.11007 24.7422C3.11007 24.8573 3.11007 24.9149 3.11007 25.03C3.11007 25.836 3.16763 26.5844 3.28277 27.3328C3.16763 27.3328 2.3041 27.4479 2.24654 27.4479C2.18897 26.9874 2.1314 26.5268 2.1314 26.0663L1.67085 26.1238C1.72842 26.7571 1.78598 27.3904 1.84355 27.9661C1.95869 27.9661 3.68575 27.7358 3.85846 27.7358C3.74332 26.9298 3.68575 26.1239 3.62818 25.3179C3.62818 25.0876 3.62818 24.8573 3.62818 24.6271C3.62818 24.5695 3.62818 24.5119 3.62818 24.4544C3.62818 23.5333 3.68575 22.6697 3.80089 21.8062C3.62818 21.8062 1.95869 21.5759 1.78598 21.5759C1.67085 22.2668 1.61328 22.9576 1.61328 23.5908L2.1314 23.706Z" fill="white"/>
<path d="M2.70752 32.7442L3.74376 32.2837C3.91647 32.7442 4.08917 33.1472 4.26188 33.5502L4.72243 33.3775C4.49215 32.8594 4.26188 32.2837 4.08917 31.708L2.13184 32.4564C2.13184 32.4564 2.53482 33.7229 3.45592 35.45C4.37702 37.177 5.18298 38.2708 5.18298 38.2708L6.91004 37.1195C6.56462 36.6013 6.16164 36.0832 5.8738 35.5075L5.47082 35.7378C5.75866 36.1984 5.98894 36.6013 6.27678 37.0043L5.35568 37.6376C5.35568 37.6376 4.60729 36.6013 3.91647 35.2197C3.16808 33.9532 2.70752 32.7442 2.70752 32.7442Z" fill="white"/>
<path d="M2.88008 30.5567C2.76494 30.0385 2.59224 29.5204 2.53467 29.0023C2.59224 29.0023 3.45577 28.8296 3.5709 28.772C3.62847 28.9447 3.62848 29.0599 3.68604 29.2326C3.80118 29.8658 3.97389 30.4991 4.20416 31.1323C4.20416 31.1899 4.20416 31.1899 4.26173 31.2475C4.3193 31.3626 4.3193 31.4202 4.37687 31.5353C4.60714 32.2837 4.95255 32.9745 5.2404 33.6654C5.18283 33.7229 4.37687 34.0683 4.26173 34.1259C4.08902 33.7229 3.85875 33.2624 3.68604 32.8594L3.22549 33.0321C3.45577 33.6078 3.68604 34.1835 3.97389 34.7592C4.08902 34.7016 5.64338 33.9532 5.81608 33.8956C5.47067 33.1472 5.12526 32.3988 4.83742 31.6505C4.77985 31.4202 4.66471 31.2475 4.60714 31.0172C4.60714 30.9596 4.54957 30.9021 4.54957 30.8445C4.26173 29.981 4.08903 29.1174 3.91632 28.2539C3.74361 28.2539 2.07412 28.5993 1.95898 28.6569C2.07412 29.3477 2.24683 29.981 2.41953 30.6718L2.88008 30.5567Z" fill="white"/>
<path d="M6.2192 38.9041L7.08273 38.1557C7.37057 38.5011 7.65841 38.8465 8.00382 39.1919L8.34924 38.8465C7.94625 38.3859 7.60084 37.9254 7.19786 37.4648L5.58594 38.7889C5.58594 38.7889 6.3919 39.8827 7.77355 41.2068C9.1552 42.5885 10.249 43.3368 10.249 43.3368L11.5155 41.7249C10.9974 41.3795 10.4793 40.9765 10.0187 40.516L9.73088 40.8614C10.1339 41.2068 10.4793 41.4946 10.8823 41.8401L10.1914 42.7036C10.1914 42.7036 9.1552 41.9552 8.06139 40.8614C7.02516 39.9403 6.2192 38.9041 6.2192 38.9041Z" fill="white"/>
<path d="M5.75855 36.7741C5.47071 36.3135 5.18287 35.853 4.95259 35.3924C5.01016 35.3349 5.75855 34.9319 5.87369 34.8743C5.93126 34.9895 6.0464 35.1622 6.10396 35.2773C6.44938 35.853 6.79479 36.3711 7.19777 36.9468C7.19777 37.0044 7.25534 37.0044 7.25534 37.0619C7.31291 37.1195 7.37048 37.2346 7.42805 37.2922C7.88859 37.9255 8.40671 38.5011 8.92483 39.0768C8.86726 39.1344 8.234 39.7677 8.11887 39.8252C7.77346 39.4798 7.48561 39.1344 7.19777 38.789L6.85236 39.1344C7.25534 39.595 7.65832 40.0555 8.11887 40.516C8.234 40.4009 9.50051 39.2495 9.61565 39.1344C9.03997 38.5587 8.52185 37.9255 8.00373 37.2922C7.88859 37.1195 7.71589 36.9468 7.60075 36.7741C7.54318 36.7165 7.54318 36.659 7.48561 36.6014C6.96749 35.853 6.50694 35.1046 6.10396 34.3562C5.98883 34.4138 4.49204 35.2773 4.31934 35.3349C4.66475 35.9106 5.01016 36.5438 5.35557 37.1195L5.75855 36.7741Z" fill="white"/>
<path d="M11.5151 43.7399L12.0908 42.7612C12.4938 42.9915 12.8967 43.2793 13.2422 43.5096L13.4724 43.1066C12.9543 42.8188 12.4362 42.4733 11.9756 42.1279L10.8818 43.9126C10.8818 43.9126 11.9756 44.661 13.7027 45.5245C15.4873 46.388 16.7538 46.791 16.7538 46.791L17.4447 44.8337C16.869 44.6609 16.2357 44.4307 15.66 44.1428L15.4873 44.6034C15.9479 44.8337 16.4084 45.0064 16.9265 45.1791L16.5236 46.2153C16.5236 46.2153 15.3146 45.8123 13.933 45.1215C12.5513 44.4882 11.5151 43.7399 11.5151 43.7399Z" fill="white"/>
<path d="M10.3636 41.8977C9.96061 41.5523 9.55763 41.2068 9.15464 40.8614C9.21221 40.8039 9.7879 40.1706 9.84547 40.0555C9.9606 40.1706 10.0757 40.2858 10.1909 40.3433C10.709 40.7463 11.1695 41.2068 11.7452 41.5523C11.8028 41.5523 11.8028 41.6098 11.8604 41.6098C11.9179 41.6674 12.0331 41.725 12.0906 41.7825C12.7239 42.2431 13.3572 42.6461 14.048 42.9915C13.9904 43.049 13.5874 43.855 13.5299 43.9126C13.1269 43.6823 12.7239 43.452 12.3209 43.2218L12.0906 43.6247C12.6088 43.9701 13.1845 44.258 13.7026 44.5458C13.7601 44.4307 14.6237 42.9339 14.6812 42.7612C13.9904 42.4158 13.242 41.9552 12.5512 41.4947C12.3785 41.3796 12.1482 41.2644 11.9755 41.0917C11.9179 41.0341 11.8604 41.0341 11.8028 40.9766C11.0544 40.4585 10.4212 39.8828 9.7879 39.2495C9.67276 39.3646 8.52139 40.6312 8.40625 40.7463C8.92437 41.2068 9.38492 41.6674 9.96061 42.0704L10.3636 41.8977Z" fill="white"/>
<path d="M18.0201 46.6758L18.3079 45.582C18.7685 45.6972 19.229 45.8123 19.632 45.9274L19.7471 45.4669C19.1714 45.3518 18.5958 45.1791 18.0201 45.0063L17.502 47.0213C17.502 47.0213 18.7685 47.4242 20.7258 47.7121C22.6831 47.9999 24.0072 47.9999 24.0072 47.9999L24.0648 45.9274C23.4315 45.9274 22.7983 45.8699 22.165 45.8123L22.1074 46.2729C22.6256 46.3304 23.1437 46.3304 23.6042 46.388L23.5467 47.5394C23.5467 47.5394 22.2802 47.5394 20.7258 47.3091C19.229 47.0788 18.0201 46.6758 18.0201 46.6758Z" fill="white"/>
<path d="M16.3507 45.2367C15.8326 45.064 15.3721 44.8338 14.854 44.6035C14.9115 44.5459 15.2569 43.7399 15.3145 43.6248C15.4296 43.6824 15.6024 43.74 15.7175 43.7975C16.2932 44.0278 16.9264 44.3156 17.5597 44.4883C17.6173 44.4883 17.6173 44.5459 17.6748 44.5459C17.79 44.5459 17.8475 44.6035 17.9627 44.6035C18.7111 44.8338 19.4595 45.0065 20.2078 45.1792C20.2078 45.2943 20.0351 46.1578 19.9776 46.2154C19.517 46.1578 19.0565 46.0427 18.5959 45.9276L18.4808 46.3881C19.114 46.5608 19.6897 46.676 20.323 46.7911C20.323 46.676 20.6684 44.9489 20.726 44.8337C19.92 44.7186 19.114 44.5459 18.3656 44.3156C18.1354 44.2581 17.9051 44.2005 17.7324 44.1429C17.6748 44.1429 17.6173 44.0854 17.5597 44.0854C16.6962 43.7975 15.8902 43.4521 15.0842 43.1067C15.0267 43.2218 14.3358 44.7762 14.2207 44.9489C14.854 45.2367 15.4872 45.5246 16.1205 45.7549L16.3507 45.2367Z" fill="white"/>
<path d="M25.1021 47.4819L24.9869 46.3305C25.4475 46.3305 25.908 46.273 26.3686 46.2154L26.311 45.7548C25.7353 45.8124 25.1021 45.87 24.5264 45.87L24.6415 47.9425C24.6415 47.9425 25.9656 47.9425 27.9229 47.597C29.8803 47.2516 31.1468 46.8486 31.1468 46.8486L30.5711 44.8337C29.9954 45.0064 29.3621 45.1792 28.7289 45.3519L28.844 45.8124C29.3621 45.6973 29.8227 45.5821 30.3408 45.4094L30.6286 46.5032C30.6286 46.5032 29.4197 46.9062 27.9229 47.1365C26.3686 47.4243 25.1021 47.4819 25.1021 47.4819Z" fill="white"/>
<path d="M23.0871 46.6184C22.569 46.6184 22.0508 46.5608 21.4752 46.5033C21.4752 46.4457 21.5903 45.5246 21.5903 45.467C21.763 45.467 21.8781 45.5246 22.0508 45.5246C22.6841 45.5822 23.3749 45.6398 24.0082 45.6398C24.0657 45.6398 24.1233 45.6398 24.1233 45.6398C24.2384 45.6398 24.296 45.6398 24.4112 45.6398C25.2171 45.6398 25.9655 45.5822 26.7139 45.467C26.7139 45.5822 26.829 46.4457 26.829 46.5033C26.3685 46.5608 25.9079 46.6184 25.4474 46.6184L25.505 47.079C26.1382 47.0214 26.7715 46.9638 27.3472 46.9063C27.3472 46.7911 27.1169 45.0641 27.1169 44.8914C26.3109 45.0065 25.505 45.0641 24.699 45.1216C24.4687 45.1216 24.2384 45.1216 24.0082 45.1216C23.9506 45.1216 23.893 45.1216 23.8355 45.1216C22.9144 45.1216 22.0508 45.0641 21.1873 44.9489C21.1873 45.1216 20.957 46.7911 20.957 46.9638C21.6479 47.079 22.3387 47.1365 22.9719 47.1365L23.0871 46.6184Z" fill="white"/>
<path d="M32.1251 46.0426L31.6646 45.0064C32.1251 44.8337 32.5281 44.661 32.9311 44.4882L32.7584 44.0277C32.2402 44.258 31.6646 44.4883 31.0889 44.661L31.8373 46.6183C31.8373 46.6183 33.1038 46.2153 34.8308 45.2942C36.5579 44.3731 37.6517 43.5671 37.6517 43.5671L36.5003 41.8401C35.9822 42.1855 35.4641 42.5885 34.8884 42.8763L35.1187 43.2793C35.5792 42.9915 35.9822 42.7612 36.3852 42.4733L37.0184 43.3944C37.0184 43.3944 35.9822 44.1428 34.6006 44.8337C33.334 45.6396 32.1251 46.0426 32.1251 46.0426Z" fill="white"/>
<path d="M29.9375 45.8698C29.4194 45.985 28.9013 46.1577 28.3832 46.2152C28.3832 46.1577 28.2105 45.2941 28.1529 45.179C28.3256 45.1214 28.4407 45.1214 28.6134 45.0639C29.2467 44.9487 29.8799 44.776 30.5132 44.5458C30.5708 44.5458 30.5708 44.5458 30.6283 44.4882C30.7435 44.4306 30.801 44.4306 30.9162 44.3731C31.6646 44.1428 32.3554 43.7974 33.0462 43.5095C33.1038 43.5671 33.4492 44.3731 33.5068 44.4882C33.1038 44.6609 32.6432 44.8912 32.2403 45.0639L32.413 45.5244C32.9887 45.2942 33.5643 45.0639 34.14 44.776C34.0825 44.6609 33.3341 43.1065 33.2765 42.9338C32.5281 43.2792 31.7797 43.6247 31.0313 43.9125C30.801 43.9701 30.6283 44.0852 30.3981 44.1428C30.3405 44.1428 30.2829 44.2003 30.2254 44.2003C29.3618 44.4882 28.4983 44.6609 27.6348 44.8336C27.6348 45.0063 27.9802 46.6758 28.0377 46.7909C28.7286 46.6758 29.3618 46.5031 30.0526 46.3304L29.9375 45.8698Z" fill="white"/>
<path d="M38.2849 42.5309L37.5365 41.6674C37.8819 41.3796 38.2274 41.0917 38.5728 40.7463L38.2273 40.4009C37.7668 40.8039 37.3063 41.1493 36.8457 41.5523L38.1698 43.1642C38.1698 43.1642 39.2636 42.3582 40.5877 40.9766C41.9693 39.5949 42.7177 38.5011 42.7177 38.5011L41.1058 37.2346C40.7604 37.7527 40.3574 38.2709 39.8968 38.7314L40.2423 39.0193C40.5877 38.6163 40.8755 38.2709 41.2209 37.8679L42.0845 38.5587C42.0845 38.5587 41.3361 39.5949 40.2423 40.6887C39.3212 41.725 38.2849 42.5309 38.2849 42.5309Z" fill="white"/>
<path d="M36.1552 43.049C35.6946 43.3368 35.2341 43.6247 34.7735 43.8549C34.716 43.7974 34.313 43.049 34.2554 42.9339C34.3706 42.8763 34.5433 42.7611 34.6584 42.7036C35.2341 42.3582 35.7522 42.0128 36.3279 41.6098C36.3855 41.6098 36.3855 41.5522 36.443 41.5522C36.5006 41.4946 36.6157 41.4371 36.6733 41.3795C37.3066 40.9189 37.8822 40.4008 38.4579 39.8827C38.5155 39.9403 39.1488 40.5735 39.2063 40.6887C38.8609 41.0341 38.5155 41.3219 38.1701 41.6098L38.5155 41.9552C38.976 41.5522 39.4366 41.1492 39.8972 40.6887C39.782 40.5735 38.6306 39.307 38.5155 39.1919C37.9398 39.7676 37.3066 40.2857 36.6733 40.8038C36.5006 40.9189 36.3279 41.0917 36.1552 41.2068C36.0976 41.2644 36.0401 41.2644 35.9825 41.3219C35.2341 41.84 34.4857 42.3006 33.7373 42.7036C33.7949 42.8187 34.6584 44.3155 34.716 44.4882C35.2917 44.1428 35.9249 43.7974 36.5006 43.452L36.1552 43.049Z" fill="white"/>
<path d="M43.1207 37.2345L42.142 36.6588C42.3723 36.2558 42.6602 35.8529 42.8904 35.5074L42.4875 35.2772C42.1996 35.7953 41.8542 36.3134 41.5088 36.774L43.2934 37.8678C43.2934 37.8678 44.0418 36.774 44.9053 35.0469C45.7689 33.2623 46.1718 31.9958 46.1718 31.9958L44.2145 31.3049C44.0418 31.8806 43.8115 32.5139 43.5237 33.0896L43.9842 33.2623C44.2145 32.8017 44.3872 32.3412 44.5599 31.8231L45.5962 32.226C45.5962 32.226 45.1932 33.435 44.5024 34.8166C43.8691 36.1983 43.1207 37.2345 43.1207 37.2345Z" fill="white"/>
<path d="M41.278 38.386C40.9326 38.789 40.5872 39.192 40.2418 39.595C40.1842 39.5374 39.551 38.9617 39.4358 38.9041C39.551 38.789 39.6661 38.6739 39.7237 38.5587C40.1267 38.0406 40.5872 37.5801 40.9326 37.0044C40.9326 36.9468 40.9902 36.9468 40.9902 36.8892C41.0478 36.8317 41.1053 36.7165 41.1629 36.6589C41.6234 36.0257 42.0264 35.3924 42.3718 34.7016C42.4294 34.7592 43.2354 35.1622 43.2929 35.2197C43.0627 35.6227 42.8324 36.0257 42.6021 36.4287L43.0051 36.6589C43.3505 36.1408 43.6384 35.5651 43.9262 35.047C43.8111 34.9895 42.3143 34.1259 42.1416 34.0684C41.7962 34.7592 41.3356 35.5076 40.8751 36.1984C40.7599 36.3711 40.6448 36.6014 40.4721 36.7741C40.4145 36.8317 40.4145 36.8892 40.3569 36.9468C39.8388 37.6952 39.2631 38.3284 38.6299 38.9617C38.745 39.0768 40.0115 40.2282 40.1267 40.3433C40.5872 39.8252 41.0478 39.3647 41.4507 38.789L41.278 38.386Z" fill="white"/>
<path d="M46.0562 30.7293L44.9624 30.4414C45.0775 29.9809 45.1927 29.5203 45.3078 29.1174L44.8473 29.0022C44.7321 29.5779 44.5594 30.1536 44.3867 30.7293L46.4016 31.2474C46.4016 31.2474 46.8046 29.9809 47.0924 28.0236C47.3803 26.0662 47.3803 24.7421 47.3803 24.7421L45.3078 24.6846C45.3078 25.3178 45.2502 25.9511 45.1927 26.5843L45.6532 26.6419C45.7108 26.1238 45.7108 25.6057 45.7684 25.1451L46.9197 25.2027C46.9197 25.2027 46.9197 26.4692 46.6895 28.0236C46.4592 29.5203 46.0562 30.7293 46.0562 30.7293Z" fill="white"/>
<path d="M44.6173 32.3989C44.4446 32.917 44.2144 33.3776 43.9841 33.8957C43.9265 33.8381 43.1206 33.4927 43.0054 33.4351C43.063 33.32 43.1206 33.1473 43.1781 33.0322C43.4084 32.4565 43.6962 31.8232 43.8689 31.19C43.8689 31.1324 43.9265 31.1324 43.9265 31.0748C43.9265 30.9597 43.9841 30.9021 43.9841 30.787C44.2144 30.0386 44.3871 29.2902 44.5598 28.5418C44.6749 28.5418 45.5384 28.7145 45.596 28.7721C45.5384 29.2326 45.4233 29.6932 45.3082 30.1537L45.7687 30.2689C45.9414 29.6356 46.0566 29.0599 46.1717 28.4267C46.0566 28.4267 44.3295 28.0813 44.2144 28.0237C44.0992 28.8296 43.9265 29.6356 43.6962 30.384C43.6387 30.6143 43.5811 30.8445 43.5235 31.0172C43.5235 31.0748 43.466 31.1324 43.466 31.19C43.1781 32.0535 42.8327 32.8594 42.4873 33.6654C42.6024 33.723 44.1568 34.4138 44.3295 34.5289C44.6173 33.8957 44.9052 33.2624 45.1355 32.6292L44.6173 32.3989Z" fill="white"/>
<path d="M46.862 23.6485L45.7106 23.7636C45.7106 23.3031 45.6531 22.8425 45.5955 22.382L45.135 22.4395C45.1925 23.0152 45.2501 23.6485 45.2501 24.2242L47.3226 24.109C47.3226 24.109 47.3226 22.7849 46.9772 20.8276C46.6318 18.8703 46.2288 17.6613 46.2288 17.6038L44.2139 18.1794C44.3866 18.7551 44.5593 19.3884 44.732 20.0216L45.1925 19.9065C45.0774 19.3884 44.9623 18.9278 44.7896 18.4097L45.8834 18.1219C45.8834 18.1219 46.2863 19.3308 46.5166 20.8276C46.8045 22.382 46.862 23.6485 46.862 23.6485Z" fill="white"/>
<path d="M45.9986 25.6634C45.9986 26.1815 45.941 26.6996 45.8835 27.2753C45.8259 27.2753 44.9624 27.1602 44.8472 27.1602C44.8472 26.9875 44.9048 26.8723 44.9048 26.6996C44.9624 26.0664 45.0199 25.3756 45.0199 24.7423C45.0199 24.6847 45.0199 24.6272 45.0199 24.6272C45.0199 24.512 45.0199 24.4545 45.0199 24.3393C45.0199 23.5334 44.9624 22.785 44.8472 22.0366C44.9624 22.0366 45.8259 21.9214 45.8835 21.9214C45.941 22.382 45.9986 22.8425 45.9986 23.3031L46.5167 23.2455C46.4591 22.6123 46.4016 21.979 46.344 21.4033C46.2289 21.4033 44.5018 21.6336 44.3291 21.6336C44.4442 22.4396 44.5018 23.2455 44.5594 24.0515C44.5594 24.2818 44.5594 24.512 44.5594 24.7423C44.5594 24.7999 44.5594 24.8574 44.5594 24.915C44.5594 25.8361 44.5018 26.6996 44.3867 27.5632C44.5594 27.5632 46.2289 27.7934 46.4016 27.7934C46.5167 27.1026 46.5743 26.4118 46.5743 25.7785L45.9986 25.6634Z" fill="white"/>
<path d="M45.4232 16.6826L44.387 17.1432C44.2143 16.6826 44.0416 16.2796 43.8689 15.8766L43.4083 16.0493C43.6386 16.5675 43.8689 17.1432 44.0416 17.7188L45.9989 16.9704C45.9989 16.9704 45.5959 15.7039 44.6748 13.9769C43.7537 12.2498 42.9478 11.156 42.9478 11.156L41.2207 12.3074C41.5661 12.8255 41.9691 13.3436 42.2569 13.9193L42.6599 13.689C42.3721 13.2285 42.1418 12.8255 41.854 12.4225L42.7751 11.7893C42.7751 11.7893 43.5234 12.8255 44.2143 14.2071C45.0202 15.4737 45.4232 16.6826 45.4232 16.6826Z" fill="white"/>
<path d="M45.2505 18.8702C45.3656 19.3884 45.5383 19.9065 45.5959 20.4246C45.5383 20.4246 44.6748 20.5973 44.5596 20.6549C44.5021 20.4822 44.5021 20.367 44.4445 20.1943C44.3294 19.5611 44.1567 18.9278 43.9264 18.2946C43.9264 18.237 43.9264 18.237 43.8688 18.1794C43.8112 18.0643 43.8112 18.0067 43.7537 17.8916C43.5234 17.1432 43.178 16.4523 42.8901 15.7615C42.9477 15.704 43.7537 15.3586 43.8688 15.301C44.0415 15.704 44.2718 16.1645 44.4445 16.5675L44.905 16.3948C44.6748 15.8191 44.4445 15.2434 44.1566 14.6677C44.0415 14.7253 42.4872 15.4737 42.3145 15.5313C42.6599 16.2796 43.0053 17.028 43.2931 17.7764C43.3507 18.0067 43.4658 18.1794 43.5234 18.4097C43.5234 18.4673 43.581 18.5248 43.581 18.5824C43.8688 19.4459 44.0415 20.3095 44.2142 21.173C44.3869 21.173 46.0564 20.8276 46.1716 20.77C46.0564 20.0792 45.8837 19.4459 45.711 18.7551L45.2505 18.8702Z" fill="white"/>
<path d="M39.3203 7.75957C40.4141 8.85337 41.9109 10.4653 41.9109 10.4653L41.0474 11.2137C40.7595 10.8683 40.4717 10.5229 40.1263 10.1774L39.7809 10.5229C40.1838 10.9834 40.5293 11.444 40.9322 11.9045L42.5442 10.5804C42.5442 10.5804 41.0474 8.91094 39.6657 7.5293" fill="white"/>
<path d="M42.4294 12.5952C42.7172 13.0558 43.0051 13.5163 43.2353 13.9769C43.1778 14.0345 42.4294 14.4374 42.3142 14.495C42.2567 14.3799 42.1415 14.2072 42.084 14.092C41.7385 13.5163 41.3931 12.9982 40.9901 12.4225C40.9901 12.365 40.9326 12.365 40.9326 12.3074C40.875 12.2498 40.8174 12.1347 40.7599 12.0771C40.2993 11.4439 39.7812 10.8682 39.2631 10.2925C39.3207 10.2349 39.9539 9.60167 40.0691 9.5441C40.4145 9.88951 40.7023 10.2349 40.9901 10.5803L41.3356 10.2349C40.9326 9.77438 40.5296 9.31382 40.0691 8.85327C39.9539 8.96841 38.6874 10.1198 38.5723 10.2349C39.148 10.8106 39.6661 11.4439 40.1842 12.0771C40.2993 12.2498 40.472 12.4225 40.5872 12.5952C40.6447 12.6528 40.6447 12.7104 40.7023 12.7679C41.2204 13.5163 41.681 14.2647 42.084 15.0131C42.1991 14.9556 43.6959 14.092 43.8686 14.0345C43.5232 13.4588 43.1778 12.8255 42.8323 12.2498L42.4294 12.5952Z" fill="white"/>
<path d="M36.0967 8.1625C36.1542 8.22007 36.2118 8.22007 36.2694 8.27764C37.0178 8.79576 37.651 9.37144 38.2843 10.0047C38.3994 9.88956 39.5508 8.62306 39.6659 8.50792C39.1478 8.04737 38.6873 7.58682 38.1116 7.18384L37.7662 7.52925C38.1692 7.87467 38.5721 8.22007 38.9751 8.56548C38.9175 8.62305 38.3419 9.25631 38.2843 9.37145C38.1692 9.25631 38.054 9.14117 37.9389 9.0836C37.4208 8.68062 36.9602 8.22007 36.3845 7.87466C36.327 7.87466 36.327 7.8171 36.2694 7.8171" fill="white"/>
</svg>
